<?xml version="1.0" encoding="UTF-8"?>
<svg version="1.1" xmlns="http://www.w3.org/2000/svg" width="178" height="40">
<path d="M0 0 C0.495 1.485 0.495 1.485 1 3 C-0.98 3 -2.96 3 -5 3 C-5 3.66 -5 4.32 -5 5 C-6.65 5.66 -8.3 6.32 -10 7 C-9.30132812 7.04898437 -8.60265625 7.09796875 -7.8828125 7.1484375 C-6.97273438 7.22320312 -6.06265625 7.29796875 -5.125 7.375 C-4.22007813 7.44460937 -3.31515625 7.51421875 -2.3828125 7.5859375 C0 8 0 8 2 10 C1 11 1 11 -1.89161682 11.12025452 C-3.18623337 11.11803391 -4.48084991 11.11581329 -5.81469727 11.11352539 C-6.88293228 11.11374443 -6.88293228 11.11374443 -7.9727478 11.1139679 C-10.33733112 11.1132687 -12.70183661 11.10547606 -15.06640625 11.09765625 C-16.70165463 11.09579209 -18.33690357 11.09436818 -19.97215271 11.09336853 C-24.28434785 11.08954318 -28.59650952 11.07971275 -32.90869141 11.06866455 C-37.30565946 11.0584508 -41.70263289 11.05387099 -46.09960938 11.04882812 C-54.73308831 11.03809049 -63.36654 11.02101387 -72 11 C-71.505 9.515 -71.505 9.515 -71 8 C-67.7 7.67 -64.4 7.34 -61 7 C-61.99 6.67 -62.98 6.34 -64 6 C-64 5.34 -64 4.68 -64 4 C-65.98 4 -67.96 4 -70 4 C-70 3.01 -70 2.02 -70 1 C-69.195625 0.87625 -68.39125 0.7525 -67.5625 0.625 C-66.716875 0.41875 -65.87125 0.2125 -65 0 C-64.67 -0.66 -64.34 -1.32 -64 -2 C-44.32310571 -8.11974837 -19.20086441 -8.22476052 0 0 Z M-55 0 C-54.01 0.33 -53.02 0.66 -52 1 C-52 2.32 -52 3.64 -52 5 C-51.34 5 -50.68 5 -50 5 C-50 3.35 -50 1.7 -50 0 C-47.36 0 -44.72 0 -42 0 C-41.67 -0.66 -41.34 -1.32 -41 -2 C-46.06562383 -2.25328119 -50.15758367 -1.33583899 -55 0 Z M-34 -2 C-34 -1.67 -34 -1.34 -34 -1 C-28.91913204 -0.15318867 -24.15171623 0.09038099 -19 0 C-22.34939881 -2.02558881 -24.86962551 -2.21738987 -28.75 -2.125 C-29.73484375 -2.10695313 -30.7196875 -2.08890625 -31.734375 -2.0703125 C-32.48203125 -2.04710937 -33.2296875 -2.02390625 -34 -2 Z M-19 2 C-19 2.66 -19 3.32 -19 4 C-18.01 3.67 -17.02 3.34 -16 3 C-16.99 2.67 -17.98 2.34 -19 2 Z M-46 5 C-46 5.33 -46 5.66 -46 6 C-44.02 6 -42.04 6 -40 6 C-40 5.67 -40 5.34 -40 5 C-41.98 5 -43.96 5 -46 5 Z M-29 5 C-29 5.33 -29 5.66 -29 6 C-27.02 6 -25.04 6 -23 6 C-23 5.67 -23 5.34 -23 5 C-24.98 5 -26.96 5 -29 5 Z " fill="#6E6A85" transform="translate(79,17)"/>
<path d="M0 0 C10.98897552 -0.6564211 20.72579568 2.40402849 31 6 C31 6.66 31 7.32 31 8 C29.02 8 27.04 8 25 8 C25 8.66 25 9.32 25 10 C14.92773522 13.4811975 4.66197215 15.17611898 -6 15 C-6.33 14.01 -6.66 13.02 -7 12 C-0.565 11.505 -0.565 11.505 6 11 C1.71 10.67 -2.58 10.34 -7 10 C-7.33 8.02 -7.66 6.04 -8 4 C-3.05 4 1.9 4 7 4 C4.69 3.67 2.38 3.34 0 3 C0 2.01 0 1.02 0 0 Z M11 7 C11 7.66 11 8.32 11 9 C11.99 8.67 12.98 8.34 14 8 C13.01 7.67 12.02 7.34 11 7 Z " fill="#64947E" transform="translate(49,12)"/>
<path d="M0 0 C10.70095643 -0.02319925 21.40190685 -0.04095373 32.10288334 -0.05181217 C37.0720973 -0.05702441 42.04129401 -0.0640919 47.01049805 -0.07543945 C51.80858466 -0.08632732 56.60665471 -0.09228934 61.40475273 -0.09487724 C63.23271381 -0.09672086 65.060674 -0.10032097 66.88862801 -0.10573006 C69.45449894 -0.1130188 72.02030197 -0.11398764 74.58618164 -0.11352539 C75.33712601 -0.11712067 76.08807037 -0.12071594 76.86177063 -0.12442017 C81.35520374 -0.11569561 85.58146902 0.26771531 90 1 C90 1.99 90 2.98 90 4 C59.97 4 29.94 4 -1 4 C-0.67 2.68 -0.34 1.36 0 0 Z " fill="#000000" transform="translate(88,17)"/>
<path d="M0 0 C9.69494017 1.13998392 18.78052793 1.0108397 28.4609375 -0.5625 C32.18595598 -1.02298794 35.57202538 -0.95668561 39.3125 -0.6875 C40.52550781 -0.60886719 41.73851563 -0.53023437 42.98828125 -0.44921875 C46 0 46 0 48 2 C47 3 47 3 44.10838318 3.12025452 C42.81376663 3.11803391 41.51915009 3.11581329 40.18530273 3.11352539 C39.11706772 3.11374443 39.11706772 3.11374443 38.0272522 3.1139679 C35.66266888 3.1132687 33.29816339 3.10547606 30.93359375 3.09765625 C29.29834537 3.09579209 27.66309643 3.09436818 26.02784729 3.09336853 C21.71565215 3.08954318 17.40349048 3.07971275 13.09130859 3.06866455 C8.69434054 3.0584508 4.29736711 3.05387099 -0.09960938 3.04882812 C-8.73308831 3.03809049 -17.36654 3.02101387 -26 3 C-25.67 2.01 -25.34 1.02 -25 0 C-16.45768029 -0.95777524 -8.53256879 -1.01521805 0 0 Z " fill="#3C3477" transform="translate(33,25)"/>
<path d="M0 0 C0.495 1.98 0.495 1.98 1 4 C-0.7015625 4.07347656 -0.7015625 4.07347656 -2.4375 4.1484375 C-3.95835398 4.2235414 -5.47918625 4.29908584 -7 4.375 C-7.74378906 4.4059375 -8.48757812 4.436875 -9.25390625 4.46875 C-13.05951472 4.66730349 -16.58998466 5.06018183 -20.28125 6.03125 C-24.47899546 7.12478033 -27.70867912 7.15326146 -32 7 C-32.33 6.01 -32.66 5.02 -33 4 C-21.74249555 1.23347263 -11.58018214 -0.1948068 0 0 Z " fill="#547BB9" transform="translate(48,11)"/>
<path d="M0 0 C10.98897552 -0.6564211 20.72579568 2.40402849 31 6 C31 6.66 31 7.32 31 8 C25.39 8 19.78 8 14 8 C14 7.01 14 6.02 14 5 C9.38 4.34 4.76 3.68 0 3 C0 2.01 0 1.02 0 0 Z " fill="#A95B75" transform="translate(49,12)"/>
<path d="M0 0 C2.64 0 5.28 0 8 0 C8 0.66 8 1.32 8 2 C10.31 2 12.62 2 15 2 C15 3.32 15 4.64 15 6 C10.38 6 5.76 6 1 6 C0.67 4.02 0.34 2.04 0 0 Z " fill="#7C7990" transform="translate(41,16)"/>
<path d="M0 0 C2.27057377 -0.05398987 4.54151288 -0.09278742 6.8125 -0.125 C8.07707031 -0.14820313 9.34164062 -0.17140625 10.64453125 -0.1953125 C14 0 14 0 17 2 C16.01 2 15.02 2 14 2 C14 2.66 14 3.32 14 4 C14.66 4.33 15.32 4.66 16 5 C12.62902617 6.49821059 10.79557881 7 7 7 C7 5.35 7 3.7 7 2 C4.69 2 2.38 2 0 2 C0 1.34 0 0.68 0 0 Z M11 3 C11 3.66 11 4.32 11 5 C11.99 4.67 12.98 4.34 14 4 C13.01 3.67 12.02 3.34 11 3 Z " fill="#5B537D" transform="translate(49,16)"/>
<path d="M0 0 C1.66519519 0.34060811 3.33157466 0.67558396 5 1 C5 1.33 5 1.66 5 2 C-0.57067277 3.59162079 -5.21101581 4.20674944 -11 4 C-11.33 3.01 -11.66 2.02 -12 1 C-4.03491043 -1.25677538 -4.03491043 -1.25677538 0 0 Z " fill="#5068AE" transform="translate(27,14)"/>
<path d="M0 0 C1.134375 0.020625 2.26875 0.04125 3.4375 0.0625 C2.1175 0.3925 0.7975 0.7225 -0.5625 1.0625 C-0.2325 3.0425 0.0975 5.0225 0.4375 7.0625 C3.0775 7.0625 5.7175 7.0625 8.4375 7.0625 C8.4375 7.3925 8.4375 7.7225 8.4375 8.0625 C4.8075 8.0625 1.1775 8.0625 -2.5625 8.0625 C-2.5625 6.4125 -2.5625 4.7625 -2.5625 3.0625 C-5.8625 3.0625 -9.1625 3.0625 -12.5625 3.0625 C-12.5625 2.7325 -12.5625 2.4025 -12.5625 2.0625 C-10.51171875 1.83463542 -8.4609375 1.60677083 -6.41015625 1.37890625 C-3.20046765 0.82925556 -4.00105232 0.0701939 0 0 Z " fill="#494776" transform="translate(41.5625,14.9375)"/>
<path d="M0 0 C1.95825873 -0.02694851 3.91662226 -0.04637218 5.875 -0.0625 C6.96554688 -0.07410156 8.05609375 -0.08570313 9.1796875 -0.09765625 C12 0 12 0 14 1 C14 1.66 14 2.32 14 3 C15.65 3 17.3 3 19 3 C17 5 17 5 14.6171875 5.1953125 C13.71226563 5.17210937 12.80734375 5.14890625 11.875 5.125 C10.50988281 5.09792969 10.50988281 5.09792969 9.1171875 5.0703125 C8.41851562 5.04710937 7.71984375 5.02390625 7 5 C7 4.01 7 3.02 7 2 C4.69 1.67 2.38 1.34 0 1 C0 0.67 0 0.34 0 0 Z " fill="#A45176" transform="translate(56,15)"/>
<path d="M0 0 C3.3 0 6.6 0 10 0 C10 1.32 10 2.64 10 4 C6.7 3.67 3.4 3.34 0 3 C0 2.01 0 1.02 0 0 Z " fill="#827F93" transform="translate(29,18)"/>
<path d="M0 0 C5.94 0 11.88 0 18 0 C18 0.33 18 0.66 18 1 C12.06 1.495 12.06 1.495 6 2 C6 2.33 6 2.66 6 3 C2.37 3 -1.26 3 -5 3 C-5 2.67 -5 2.34 -5 2 C-3.35 2 -1.7 2 0 2 C0 1.34 0 0.68 0 0 Z " fill="#5B747A" transform="translate(37,23)"/>
<path d="M0 0 C0 0.99 0 1.98 0 3 C0.66 3.33 1.32 3.66 2 4 C2 4.66 2 5.32 2 6 C1.01 6 0.02 6 -1 6 C-1 5.34 -1 4.68 -1 4 C-2.98 4 -4.96 4 -7 4 C-7 3.01 -7 2.02 -7 1 C-2.25 0 -2.25 0 0 0 Z " fill="#5A5677" transform="translate(16,17)"/>
<path d="M0 0 C3.3 0 6.6 0 10 0 C7 3 7 3 3.3125 3.1875 C1.6728125 3.0946875 1.6728125 3.0946875 0 3 C0 2.01 0 1.02 0 0 Z " fill="#8D5178" transform="translate(49,12)"/>
<path d="M0 0 C0.99 0 1.98 0 3 0 C3 0.66 3 1.32 3 2 C4.65 2 6.3 2 8 2 C6 4 6 4 2.875 4.125 C1.451875 4.063125 1.451875 4.063125 0 4 C0 2.68 0 1.36 0 0 Z " fill="#CE6375" transform="translate(67,16)"/>
<path d="M0 0 C1.65 0 3.3 0 5 0 C5 1.32 5 2.64 5 4 C3.35 4 1.7 4 0 4 C0 2.68 0 1.36 0 0 Z " fill="#909098" transform="translate(42,17)"/>
</svg>
